<?xml version="1.0" encoding="utf-8"?>
<!-- Svg Vector Icons : http://www.onlinewebfonts.com/icon -->
<!DOCTYPE svg PUBLIC "-//W3C//DTD SVG 1.1//EN" "http://www.w3.org/Graphics/SVG/1.1/DTD/svg11.dtd">
<svg version="1.1" xmlns="http://www.w3.org/2000/svg" xmlns:xlink="http://www.w3.org/1999/xlink" x="0px" y="0px" viewBox="0 0 1000 1000" enable-background="new 0 0 1000 1000" xml:space="preserve">
<metadata> Svg Vector Icons : http://www.onlinewebfonts.com/icon </metadata>
<g><g><g><circle cx="292.2" cy="117.2" r="98.3"/><path d="M620.8,432.6c24.6-31.4,69.7-38.2,102.5-14.7c33.5,24.1,41.3,70.8,17.2,104.4c-1.2,1.7-2.5,3.2-3.8,4.8l10.6,7.6c72.4-100.9,50.8-241.3-47.2-319.3l7.1-9.9c3.9-5.6,2.7-13.3-2.9-17.3c-5.5-4-13.3-2.7-17.2,2.8l-7.1,9.9c-105.3-67.8-245.2-43.3-317.6,57.6l7.7,5.5c1-1.7,2.1-3.5,3.3-5.1c24.1-33.5,70.8-41.2,104.4-17.2c33.6,24.1,41.3,70.8,17.2,104.4c-1.2,1.7-2.5,3.2-3.8,4.8l3.1,2.2c1.1-1.7,2.1-3.5,3.3-5.1c24.1-33.5,70.8-41.2,104.4-17.2c1.3,0.9,2.5,1.9,3.7,2.9L441.2,562.9c-13,18.1-37,23.6-56.4,14.3c30.7-14.4,45.6-67.6,8.7-95.9c-46-35.1-85.6-75.9-120.1-121c23.1-36,25.3-80.7-8.2-113.8c-31.4-31-94.4-36.9-124.4,0.7C41.2,371.9-8.1,469.7,16.1,628.6c16.4-11.2,25.6-3.5,30.5,12.5c0,96.6,0,193.2,0,289.9c0,66.7,103.5,66.7,103.5,0c0-94,0-187.9,0-281.8c6.4-17,17.2-27.8,35.2-23.7c-9.1-59.7,4-119.7,30-174.1c37.3,43.6,79.1,83.2,126,119.1c5.1,3.9,10.2,6.6,15.1,8.2c3.1,3.6,6.7,7,10.7,9.9c28.8,20.6,69,14,89.6-14.7l162.3-226.2C636.6,372.4,638.2,406.2,620.8,432.6z"/><path d="M877.6,891.1c-31.1,23.1-50-14.6-50-14.6l-82.3-82.3c-3.4,0.4-6.7,0.7-9.9,0.7c-38.6,0-69.2-26.9-69.7-27.2l6.9-7.7c1.7,1.5,29.1,25.3,63.2,24.8l-9.1-9.2c-14.3-133.1-113.8-87.9-113.8-87.9v25.9L576.7,729c-64.7,12.9,0,46.6,0,46.6c79.1-9.1,77.6,77.6,77.6,77.6l-56.9,108.6h25.9l72.4-87.9c0,0-51.1,87.9,8.6,87.9c59.7,0,110.3,0,110.3,0C907.8,925.5,912.2,827.9,877.6,891.1z"/><path d="M875,237.5c-6.6,11.6-2.6,26.4,9,33c11.6,6.7,26.4,2.7,33-8.9c6.6-11.6-4.6-40.6-4.6-40.6S881.7,225.9,875,237.5z"/><path d="M776.7,213.4c11.6,6.7,26.3,2.7,33-8.9c6.6-11.6-4.6-40.6-4.6-40.6s-30.8,4.9-37.4,16.5C761,192,765.1,206.7,776.7,213.4z"/><path d="M512.9,117c11.6,6.7,26.3,2.7,33-8.9c6.7-11.6-4.6-40.6-4.6-40.6s-30.7,5-37.4,16.5C497.3,95.6,501.3,110.4,512.9,117z"/><path d="M827.7,351.2c-6.6,11.6-2.6,26.4,9,33c11.6,6.7,26.4,2.7,33-8.9c6.6-11.6-4.6-40.6-4.6-40.6S834.4,339.7,827.7,351.2z"/><path d="M983.3,308.3c0,0-30.8,4.9-37.4,16.5c-6.7,11.6-2.6,26.4,9,33c11.6,6.7,26.4,2.7,33-8.9C994.6,337.4,983.3,308.3,983.3,308.3z"/><path d="M875,464.2c-6.6,11.6-2.6,26.4,9,33c11.6,6.7,26.4,2.6,33-8.9c6.6-11.6-4.6-40.6-4.6-40.6S881.7,452.6,875,464.2z"/><path d="M964.3,134.4c6.6-11.6-4.6-40.6-4.6-40.6s-30.7,5-37.4,16.5c-6.6,11.6-2.6,26.4,9,33C942.9,150,957.7,146,964.3,134.4z"/><path d="M836.7,117c11.6,6.7,26.3,2.7,33-8.9c6.7-11.6-4.6-40.6-4.6-40.6s-30.7,4.9-37.4,16.5C821.1,95.6,825.1,110.4,836.7,117z"/><path d="M687.7,90.6c11.6,6.7,26.4,2.7,33-8.9c6.7-11.6-4.6-40.6-4.6-40.6s-30.7,4.9-37.4,16.5C672.1,69.2,676.1,84,687.7,90.6z"/></g></g><g></g><g></g><g></g><g></g><g></g><g></g><g></g><g></g><g></g><g></g><g></g><g></g><g></g><g></g><g></g></g>
</svg>