<?xml version="1.0" standalone="no"?>
<!DOCTYPE svg PUBLIC "-//W3C//DTD SVG 20010904//EN"
 "http://www.w3.org/TR/2001/REC-SVG-20010904/DTD/svg10.dtd">
<svg version="1.0" xmlns="http://www.w3.org/2000/svg"
 width="900.000000pt" height="576.000000pt" viewBox="0 0 900.000000 576.000000"
 preserveAspectRatio="xMidYMid meet">
<metadata>
Created by potrace 1.10, written by Peter Selinger 2001-2011
</metadata>
<g transform="translate(0.000000,576.000000) scale(0.100000,-0.100000)"
fill="#ffffff" stroke="none">
<path d="M1745 4178 c-66 -4 -129 -8 -140 -9 -111 -6 -282 -24 -289 -31 -6 -4
-24 -8 -41 -8 -43 0 -229 -49 -300 -79 -11 -4 -41 -18 -66 -30 -25 -11 -50
-21 -54 -21 -5 0 -23 -11 -41 -25 -18 -14 -35 -25 -38 -25 -27 0 -183 -141
-212 -191 -91 -159 -124 -265 -124 -396 0 -105 26 -181 84 -242 57 -60 166
-129 206 -131 8 0 24 -7 34 -15 11 -8 28 -15 38 -15 10 0 26 -4 36 -10 40 -22
194 -68 387 -116 55 -14 109 -29 120 -34 11 -5 45 -12 75 -16 30 -3 60 -10 65
-14 6 -4 37 -13 70 -19 58 -12 97 -23 140 -42 11 -4 38 -13 60 -19 156 -41
202 -134 127 -255 -34 -55 -121 -115 -165 -115 -14 0 -28 -4 -31 -9 -8 -12
-70 -21 -192 -27 -125 -7 -198 11 -256 64 -59 53 -72 85 -78 187 l-5 90 -454
3 c-343 2 -457 -1 -462 -10 -4 -6 -8 -87 -9 -180 -1 -162 0 -170 26 -224 15
-31 44 -74 66 -96 43 -43 140 -108 160 -108 8 0 22 -6 33 -14 11 -7 61 -23
110 -35 50 -12 106 -26 125 -32 19 -5 96 -14 170 -19 74 -6 182 -14 240 -19
116 -11 468 -3 476 11 3 4 42 8 87 9 107 0 193 11 352 44 64 13 120 28 130 35
6 4 28 10 50 13 22 4 63 17 90 30 28 14 61 28 74 32 14 4 39 16 55 26 17 10
42 24 56 31 32 17 34 18 105 78 74 63 67 56 115 113 43 52 97 158 126 247 12
38 17 88 18 165 0 100 -2 115 -28 167 -30 62 -125 160 -178 184 -18 8 -40 18
-48 24 -49 30 -194 86 -260 101 -19 4 -57 15 -85 24 -27 9 -68 21 -90 27 -22
6 -49 14 -60 18 -27 10 -228 59 -290 71 -27 5 -59 14 -70 19 -18 8 -113 34
-174 48 -36 8 -155 68 -170 86 -26 31 -25 97 3 152 14 28 31 56 38 62 30 24
110 61 148 67 22 4 42 11 46 16 3 5 46 9 96 9 133 0 238 -37 293 -105 27 -33
31 -46 35 -123 l5 -87 437 -3 437 -2 17 37 c20 42 25 192 7 215 -5 7 -13 33
-17 56 -8 54 -58 133 -118 189 -59 53 -191 116 -293 138 -44 10 -89 21 -100
25 -26 10 -214 33 -246 29 -13 -1 -40 1 -59 4 -59 11 -298 14 -425 5z"/>
<path d="M3617 4107 c-8 -12 -18 -56 -22 -97 -4 -41 -11 -80 -16 -86 -11 -13
-26 -81 -42 -184 -7 -41 -15 -79 -18 -85 -3 -5 -16 -64 -28 -130 -13 -66 -27
-127 -31 -136 -5 -9 -12 -45 -16 -80 -3 -35 -10 -68 -14 -74 -4 -5 -10 -26
-13 -45 -9 -62 -39 -204 -48 -225 -4 -11 -11 -47 -14 -80 -4 -33 -11 -68 -17
-78 -9 -18 -14 -38 -43 -197 -18 -99 -44 -218 -56 -256 -5 -17 -9 -42 -9 -56
0 -13 -3 -28 -7 -32 -5 -4 -13 -40 -20 -79 -16 -99 -39 -202 -46 -214 -19 -30
23 -33 464 -31 l444 3 3 25 c2 14 8 30 12 35 4 6 11 37 15 70 3 33 10 69 14
80 8 20 39 162 48 220 2 17 7 37 11 45 3 8 11 47 18 85 7 39 17 88 23 110 6
22 13 52 16 67 11 57 17 58 253 58 287 -1 345 -17 387 -110 17 -38 17 -116 -3
-500 -5 -96 -7 -178 -5 -182 5 -10 884 -10 899 0 8 5 15 112 23 337 6 182 13
356 17 389 4 37 2 62 -5 69 -6 6 -11 23 -11 38 0 14 -15 46 -34 71 -46 60
-124 97 -225 106 -69 6 -76 9 -79 29 -4 26 28 43 78 43 16 0 31 4 35 9 3 5 19
12 35 16 83 18 199 94 286 188 75 80 127 172 145 253 5 27 14 67 19 89 21 94
0 226 -49 305 -49 79 -203 180 -274 180 -14 0 -28 4 -31 9 -3 5 -22 12 -43 16
-128 24 -303 29 -1124 32 l-887 3 -15 -23z m1331 -422 c58 -13 116 -50 144
-91 23 -33 27 -50 27 -104 0 -42 -5 -72 -14 -84 -8 -11 -15 -28 -15 -38 0 -27
-65 -112 -107 -140 -99 -65 -124 -70 -410 -75 l-232 -4 -6 23 c-5 21 1 60 26
163 5 22 14 63 19 90 6 28 15 68 20 90 5 22 14 63 19 92 19 101 -1 94 264 90
128 -2 247 -8 265 -12z"/>
<path d="M6647 4107 c-8 -12 -18 -56 -22 -97 -4 -41 -11 -80 -15 -85 -10 -12
-50 -203 -50 -237 0 -13 -4 -28 -9 -34 -4 -5 -18 -63 -31 -129 -12 -66 -26
-130 -31 -143 -5 -12 -12 -48 -15 -80 -4 -31 -10 -61 -14 -67 -5 -5 -10 -26
-13 -45 -3 -19 -10 -57 -17 -85 -6 -27 -16 -72 -21 -100 -22 -112 -39 -193
-54 -255 -9 -36 -22 -99 -29 -140 -7 -41 -15 -82 -18 -90 -3 -8 -11 -42 -18
-75 -6 -33 -15 -76 -20 -95 -13 -51 -20 -87 -31 -160 -6 -36 -14 -73 -19 -82
-5 -9 -14 -47 -20 -84 -9 -53 -8 -69 2 -76 7 -4 211 -7 453 -5 l440 2 3 25 c2
14 7 30 12 35 4 6 11 39 14 74 4 35 11 71 16 80 5 9 16 57 26 106 9 50 20 110
26 135 5 25 15 77 21 115 7 39 15 75 18 80 3 6 9 22 13 38 l6 27 423 0 c250 1
440 5 467 11 25 6 81 15 125 20 44 6 84 14 89 20 6 5 17 9 25 9 9 1 34 9 56
20 22 11 46 19 54 20 7 0 40 18 73 40 33 22 63 40 67 40 3 0 43 37 87 83 80
81 118 135 162 232 13 28 27 58 33 67 5 10 13 34 18 55 6 21 15 56 20 78 6 22
11 57 11 78 0 30 4 40 20 44 18 5 20 14 20 102 0 85 -2 98 -20 109 -14 9 -20
23 -20 50 0 20 -11 57 -25 82 -13 25 -28 54 -33 65 -15 31 -113 118 -157 139
-22 10 -52 25 -67 33 -14 7 -35 13 -46 13 -12 0 -23 4 -26 9 -8 12 -112 30
-246 41 -63 5 -471 10 -906 10 l-792 0 -15 -23z m1282 -444 c52 -13 88 -38
119 -84 22 -31 23 -42 20 -124 -2 -49 -9 -99 -14 -110 -46 -90 -60 -112 -82
-130 -53 -43 -119 -74 -172 -81 -30 -3 -60 -11 -66 -15 -7 -5 -92 -8 -190 -7
l-179 3 2 78 c1 43 6 84 12 91 6 7 12 28 15 47 9 66 38 204 47 221 5 10 9 31
9 47 0 16 4 41 10 56 l10 26 207 -4 c115 -2 228 -8 252 -14z"/>
<path d="M335 1598 c-74 -40 -87 -94 -30 -121 20 -9 45 -17 56 -17 27 0 43
-41 21 -57 -23 -19 -56 -16 -85 7 -39 31 -73 21 -60 -18 12 -32 122 -58 138
-32 3 6 15 10 25 10 30 0 61 40 58 75 -3 27 -9 32 -62 50 -66 22 -77 37 -50
66 22 25 49 24 67 -2 10 -13 23 -19 38 -17 60 8 13 68 -53 68 -24 0 -52 -6
-63 -12z"/>
<path d="M636 1594 c-9 -8 -16 -20 -16 -25 0 -5 -17 -35 -39 -67 -21 -31 -51
-78 -66 -104 l-27 -48 26 0 c18 0 30 8 38 25 10 23 17 25 75 25 58 0 64 -2 75
-25 9 -20 18 -25 37 -23 24 3 25 6 22 53 -1 28 -6 55 -11 60 -4 6 -10 33 -12
62 -3 29 -11 59 -18 68 -16 20 -64 19 -84 -1z m50 -79 c7 -49 -5 -75 -36 -75
-38 0 -43 25 -15 79 15 28 31 49 35 46 5 -3 12 -26 16 -50z"/>
<path d="M867 1604 c-4 -4 -7 -17 -7 -30 0 -12 -6 -49 -14 -81 -8 -32 -17 -77
-20 -100 l-6 -43 90 0 c83 0 90 1 90 20 0 17 -7 20 -39 20 -60 0 -71 7 -71 49
0 20 4 41 9 47 6 5 11 34 13 64 3 49 1 55 -17 58 -12 2 -24 0 -28 -4z"/>
<path d="M1054 1548 c3 -35 9 -92 13 -128 8 -64 8 -65 41 -68 39 -4 57 9 81
57 10 20 38 71 63 113 47 77 49 88 17 88 -17 0 -36 -27 -89 -125 -15 -27 -32
-51 -38 -53 -14 -4 -24 30 -31 108 -6 62 -7 65 -34 68 l-29 3 6 -63z"/>
<path d="M1386 1588 c-9 -12 -16 -26 -16 -31 0 -4 -19 -38 -43 -75 -62 -96
-77 -121 -77 -127 0 -3 11 -5 23 -5 16 0 28 9 35 25 11 23 17 25 77 25 61 0
66 -2 75 -25 7 -19 17 -25 39 -25 28 0 29 1 24 43 -2 23 -9 54 -14 68 -6 14
-10 36 -11 50 0 13 -5 41 -10 62 -8 35 -11 37 -48 37 -29 0 -43 -6 -54 -22z
m48 -45 c18 -64 17 -82 -3 -92 -50 -27 -73 -1 -47 53 9 19 16 39 16 45 0 18
28 12 34 -6z"/>
<path d="M1647 1603 c-4 -3 -7 -17 -7 -30 0 -13 -4 -31 -9 -41 -5 -9 -14 -46
-19 -82 -6 -36 -13 -73 -17 -82 -6 -14 -2 -18 18 -18 21 0 26 5 30 38 4 32 19
96 33 141 3 10 7 11 19 1 10 -8 15 -37 17 -93 3 -82 3 -82 30 -82 24 0 32 10
71 84 24 47 49 87 55 89 14 4 16 -51 3 -76 -4 -9 -11 -36 -14 -59 -5 -39 -3
-43 17 -43 25 0 36 30 59 160 7 36 15 70 19 76 11 17 -2 24 -47 24 -47 0 -69
-18 -81 -65 -3 -16 -12 -37 -19 -45 -6 -8 -15 -24 -19 -34 -12 -34 -27 -2 -33
72 l-6 72 -47 0 c-26 0 -50 -3 -53 -7z"/>
<path d="M2027 1595 c-9 -8 -18 -45 -22 -86 -4 -40 -14 -88 -22 -107 -9 -21
-11 -38 -5 -44 5 -5 49 -8 98 -6 71 2 89 6 89 18 0 11 -16 17 -58 21 -32 4
-61 9 -64 13 -3 3 -1 17 5 30 10 22 19 25 69 28 44 2 58 7 58 18 0 9 -11 16
-30 18 -57 5 -75 12 -75 30 0 29 21 42 66 42 52 0 74 8 74 26 0 21 -163 20
-183 -1z"/>
<path d="M2280 1591 c-5 -11 -10 -32 -10 -46 0 -14 -4 -34 -9 -43 -5 -9 -12
-47 -16 -84 -6 -56 -5 -68 7 -68 21 0 36 36 48 115 6 38 13 72 16 75 9 8 44
-43 44 -64 0 -11 8 -43 17 -73 l17 -54 40 3 c45 3 41 -6 69 150 7 36 15 70 20
74 15 16 7 35 -14 32 -23 -3 -44 -58 -56 -141 -7 -49 -35 -47 -45 3 -15 78
-30 125 -41 132 -24 15 -76 9 -87 -11z"/>
<path d="M2580 1590 c0 -16 7 -20 36 -20 34 0 35 -2 30 -27 -3 -16 -10 -55
-15 -88 -6 -33 -13 -70 -17 -82 -5 -20 -3 -23 19 -23 30 0 40 23 58 134 8 43
18 80 24 81 5 2 27 6 48 10 23 4 37 11 37 20 0 12 -20 15 -110 15 -103 0 -110
-1 -110 -20z"/>
<path d="M2905 1601 c-27 -12 -75 -61 -86 -89 -11 -28 -12 -103 -1 -118 15
-21 57 -44 82 -44 32 0 92 21 115 40 27 22 55 86 55 125 0 54 -44 95 -102 94
-24 0 -52 -4 -63 -8z m95 -50 c27 -52 -5 -144 -55 -157 -77 -19 -108 69 -53
149 16 22 27 27 58 27 29 0 42 -5 50 -19z"/>
<path d="M3196 1601 c-4 -6 1 -27 9 -48 38 -90 45 -120 35 -149 -14 -36 -5
-56 22 -52 17 2 24 11 26 32 4 35 34 83 95 155 26 30 44 58 41 63 -13 20 -45
6 -68 -30 -48 -76 -71 -77 -91 -4 -8 29 -16 38 -37 40 -14 2 -29 -1 -32 -7z"/>
<path d="M3625 1598 c-2 -7 -6 -26 -8 -43 -3 -16 -10 -48 -15 -70 -5 -22 -12
-62 -16 -88 -5 -45 -4 -48 16 -45 25 4 35 20 43 71 6 37 7 38 43 35 37 -3 37
-4 42 -53 5 -46 7 -50 33 -53 27 -3 27 -2 27 52 0 30 -4 58 -10 61 -5 3 3 23
19 46 29 39 32 75 7 91 -20 14 -176 9 -181 -4z m126 -28 c22 -13 25 -43 5 -59
-8 -7 -30 -11 -48 -9 -38 4 -50 35 -23 62 19 19 38 20 66 6z"/>
<path d="M3913 1598 c-10 -14 -45 -175 -47 -218 -1 -25 -1 -25 89 -25 73 0 90
3 90 15 0 11 -15 16 -52 20 -66 7 -84 22 -59 49 13 15 34 21 75 23 42 2 56 7
56 18 0 10 -14 17 -47 20 -94 11 -91 61 3 70 58 6 83 16 74 31 -9 14 -171 11
-182 -3z"/>
<path d="M4184 1576 c-55 -55 -44 -86 38 -110 53 -16 71 -41 44 -62 -27 -19
-52 -18 -84 6 -40 30 -78 11 -54 -27 17 -27 114 -45 127 -23 3 6 15 10 26 10
29 0 59 36 59 71 0 25 -6 32 -35 45 -19 7 -43 14 -54 14 -23 0 -44 31 -35 54
10 27 44 30 75 7 36 -27 69 -28 69 -2 0 28 -43 51 -96 51 -39 0 -51 -5 -80
-34z"/>
<path d="M4500 1602 c-54 -24 -100 -98 -100 -160 0 -43 5 -51 42 -75 49 -31
139 -15 182 32 18 20 18 21 1 27 -11 4 -35 -2 -61 -16 -35 -20 -49 -22 -71
-14 -56 19 -37 130 29 169 29 16 30 16 68 -10 60 -41 97 -14 47 33 -18 17 -35
22 -73 21 -27 0 -56 -3 -64 -7z"/>
<path d="M4808 1588 c-23 -40 -36 -61 -88 -146 -27 -45 -50 -84 -50 -87 0 -16
42 -1 56 20 15 22 23 25 80 25 60 0 65 -2 74 -25 7 -18 17 -25 35 -25 23 0 25
4 25 40 0 22 -7 57 -15 77 -8 19 -15 50 -15 67 0 63 -9 76 -51 76 -29 0 -42
-5 -51 -22z m51 -75 c15 -56 0 -80 -43 -69 -29 7 -33 30 -11 60 8 11 15 28 15
38 0 37 28 17 39 -29z"/>
<path d="M4982 1593 c2 -12 14 -19 36 -21 17 -2 32 -6 32 -10 0 -19 -29 -179
-35 -194 -6 -14 -2 -18 17 -18 32 0 46 26 59 112 14 90 23 108 55 108 32 0 66
18 59 31 -4 5 -56 9 -116 9 -100 0 -110 -2 -107 -17z"/>
<path d="M5264 1602 c-11 -6 -44 -165 -48 -222 -1 -25 0 -25 83 -28 59 -2 87
1 92 10 12 19 1 28 -39 28 -78 0 -101 20 -64 53 12 11 36 17 70 17 28 0 53 4
56 8 11 18 -15 35 -54 36 -85 2 -77 66 7 66 48 0 87 15 78 31 -7 11 -165 12
-181 1z"/>
<path d="M5645 1558 c-8 -28 -15 -61 -15 -73 0 -11 -4 -25 -9 -30 -5 -6 -11
-30 -13 -55 -2 -42 -1 -45 21 -45 18 0 27 8 34 30 15 46 26 55 67 55 49 0 88
21 111 59 25 41 24 63 -4 89 -20 19 -35 22 -100 22 l-76 0 -16 -52z m140 8
c16 -12 18 -19 10 -43 -9 -25 -16 -28 -58 -31 l-47 -3 0 35 c0 51 52 74 95 42z"/>
<path d="M5916 1598 c-3 -7 -7 -35 -10 -63 -4 -27 -13 -68 -21 -90 -21 -58
-19 -95 4 -95 26 0 39 19 43 65 3 39 4 40 43 40 l40 0 5 -50 c5 -45 7 -50 30
-50 22 0 25 5 28 42 2 24 -1 51 -7 60 -7 14 -4 26 15 51 18 22 24 42 22 65
l-3 32 -93 3 c-69 2 -93 -1 -96 -10z m128 -34 c9 -8 16 -19 16 -23 0 -33 -85
-64 -96 -36 -10 24 4 63 24 68 32 8 40 7 56 -9z"/>
<path d="M6245 1591 c-31 -14 -46 -30 -68 -72 -37 -75 -35 -101 10 -138 38
-32 104 -43 118 -21 3 6 14 10 24 10 40 0 85 55 106 127 9 31 -22 93 -52 104
-38 14 -94 10 -138 -10z m119 -43 c21 -30 20 -60 -4 -101 -54 -90 -170 -60
-146 38 18 73 115 113 150 63z"/>
<path d="M6527 1603 c-2 -5 -9 -35 -16 -68 -7 -33 -17 -71 -22 -85 -4 -14 -9
-41 -11 -60 -3 -31 0 -35 20 -35 20 0 27 9 40 50 17 49 18 50 62 53 76 6 99
42 26 42 -47 0 -70 17 -64 47 2 14 16 19 58 23 59 6 84 16 75 31 -7 11 -162
12 -168 2z"/>
<path d="M6745 1598 c-5 -17 -13 -59 -29 -143 -7 -38 -16 -78 -21 -87 -6 -16
1 -18 88 -18 92 0 107 5 107 36 0 2 -24 4 -54 4 -59 0 -78 13 -70 48 5 18 14
22 62 24 45 2 58 7 60 21 3 14 -4 17 -42 17 -50 0 -72 20 -55 52 7 14 22 18
62 18 56 0 84 11 73 29 -10 16 -175 15 -181 -1z"/>
<path d="M7043 1589 c-39 -25 -58 -72 -38 -93 8 -8 37 -22 64 -31 55 -18 72
-42 45 -62 -26 -19 -62 -16 -91 7 -29 22 -32 23 -51 12 -18 -12 -4 -40 29 -57
32 -17 80 -20 95 -6 5 5 20 11 33 13 34 4 64 48 56 81 -6 21 -16 28 -56 38
-62 16 -76 31 -61 64 14 30 38 32 72 5 29 -22 70 -26 70 -7 0 8 -10 23 -23 35
-31 29 -100 29 -144 1z"/>
<path d="M7287 1603 c-4 -3 -7 -15 -7 -25 0 -10 -4 -26 -9 -36 -5 -9 -14 -46
-20 -82 -6 -36 -13 -75 -17 -87 -5 -20 -3 -23 19 -23 33 0 41 15 56 110 7 41
18 87 23 102 5 15 7 32 3 37 -7 12 -38 15 -48 4z"/>
<path d="M7463 1590 c-64 -28 -105 -110 -89 -175 7 -29 59 -65 94 -65 13 0 45
7 72 16 59 19 97 68 106 136 6 43 4 50 -24 77 -25 25 -39 31 -74 31 -24 0 -62
-9 -85 -20z m112 -33 c14 -11 17 -23 13 -61 -9 -77 -68 -121 -131 -97 -24 9
-27 16 -27 58 0 39 5 52 32 80 35 36 79 44 113 20z"/>
<path d="M7729 1598 c-1 -7 -1 -17 0 -22 1 -4 -3 -13 -8 -20 -11 -13 -41 -148
-41 -183 0 -16 6 -23 20 -23 12 0 21 8 24 23 3 12 8 36 11 52 3 17 9 46 13 65
8 39 42 56 42 21 0 -11 6 -35 14 -53 8 -18 18 -50 21 -70 6 -36 8 -38 44 -38
46 0 52 11 75 130 23 119 24 124 4 128 -21 4 -38 -33 -38 -82 0 -19 -7 -39
-15 -46 -8 -7 -15 -21 -15 -32 0 -39 -25 -10 -36 43 -25 112 -26 114 -72 117
-29 2 -42 -1 -43 -10z"/>
<path d="M8098 1558 c-18 -29 -35 -57 -37 -63 -2 -5 -14 -23 -26 -40 -20 -26
-55 -92 -55 -102 0 -1 8 -3 19 -3 10 0 26 11 35 25 15 22 23 25 80 25 60 0 64
-2 70 -25 5 -21 12 -25 41 -25 33 0 46 12 26 24 -5 3 -12 43 -16 88 -4 44 -14
96 -21 115 -12 28 -19 33 -48 33 -30 0 -38 -6 -68 -52z m74 -52 c9 -45 -3 -66
-37 -66 -39 0 -47 21 -23 69 26 52 49 51 60 -3z"/>
<path d="M8351 1498 c-13 -62 -25 -121 -28 -130 -4 -16 5 -18 87 -18 89 0 91
1 88 23 -2 15 -9 21 -22 19 -11 -2 -34 -1 -53 3 -29 5 -33 9 -33 39 0 18 3 36
7 40 10 10 32 119 26 129 -2 4 -14 7 -26 7 -21 0 -25 -10 -46 -112z"/>
</g>
</svg>
