<?xml version="1.0" standalone="no"?>
<!DOCTYPE svg PUBLIC "-//W3C//DTD SVG 20010904//EN"
 "http://www.w3.org/TR/2001/REC-SVG-20010904/DTD/svg10.dtd">
<svg version="1.0" xmlns="http://www.w3.org/2000/svg"
 width="900.000000pt" height="813.000000pt" viewBox="0 0 900.000000 813.000000"
 preserveAspectRatio="xMidYMid meet">
<metadata>
Created by potrace 1.10, written by Peter Selinger 2001-2011
</metadata>
<g transform="translate(0.000000,813.000000) scale(0.100000,-0.100000)"
fill="#ffffff" stroke="none">
<path d="M5400 7550 c0 -562 1 -580 19 -590 11 -5 33 -10 49 -10 16 0 43 -7
58 -15 16 -8 43 -15 61 -15 17 0 35 -4 38 -10 3 -5 15 -10 25 -10 11 0 34 -6
52 -14 18 -8 74 -26 123 -41 50 -16 127 -45 172 -67 46 -21 89 -38 97 -38 7 0
19 -7 26 -15 7 -8 18 -15 25 -15 14 0 77 -31 85 -41 3 -4 41 -26 85 -49 44
-23 87 -48 95 -55 22 -20 121 -85 129 -85 3 0 20 -13 36 -28 17 -15 44 -36 62
-47 17 -11 58 -45 90 -76 32 -31 75 -68 94 -81 47 -32 185 -172 231 -234 20
-27 50 -62 66 -78 17 -16 43 -48 58 -72 16 -24 31 -44 35 -44 4 0 35 -46 70
-101 35 -56 76 -116 92 -134 15 -18 27 -40 27 -48 0 -9 4 -18 9 -21 4 -3 27
-45 50 -93 24 -49 56 -114 72 -146 16 -31 29 -64 29 -72 0 -7 11 -35 25 -61
14 -26 25 -53 25 -61 0 -8 6 -27 14 -41 29 -54 69 -196 83 -295 4 -27 11 -39
27 -42 11 -3 271 -4 576 -3 548 3 555 3 554 23 -1 11 -7 54 -13 95 -7 41 -15
100 -19 130 -4 30 -12 62 -17 70 -5 8 -12 32 -16 55 -14 74 -32 135 -41 135
-4 0 -8 12 -8 28 0 15 -6 36 -14 47 -7 11 -16 31 -19 45 -4 23 -17 62 -38 115
-4 11 -14 40 -22 65 -8 25 -21 61 -28 80 -21 57 -100 220 -110 226 -5 3 -9 15
-9 27 0 12 -11 38 -23 57 -32 48 -77 138 -77 156 0 8 -4 14 -9 14 -5 0 -13 10
-16 21 -4 12 -20 40 -35 63 -81 120 -110 167 -110 174 0 5 -9 17 -20 27 -11
10 -20 24 -20 31 0 7 -18 31 -40 54 -22 23 -40 45 -40 50 0 5 -18 30 -40 55
-22 25 -45 56 -51 68 -7 12 -41 52 -77 89 -35 37 -72 80 -82 95 -19 32 -304
316 -323 322 -7 2 -34 25 -62 51 -27 25 -63 55 -79 65 -15 10 -46 36 -68 57
-22 21 -45 38 -52 38 -7 0 -30 16 -52 35 -21 19 -43 35 -48 35 -4 0 -24 14
-43 30 -18 17 -39 30 -45 30 -7 0 -23 11 -37 23 -27 25 -156 107 -167 107 -4
0 -30 15 -58 33 -55 36 -337 177 -354 177 -5 0 -48 18 -95 40 -46 22 -89 40
-96 40 -6 0 -19 4 -29 9 -21 11 -98 37 -134 45 -16 4 -28 11 -28 16 0 6 -13
10 -30 10 -16 0 -39 4 -52 9 -13 5 -43 14 -68 20 -25 7 -66 19 -91 26 -26 8
-58 15 -72 15 -13 0 -38 7 -53 15 -16 8 -45 15 -64 15 -19 0 -53 7 -75 15 -22
8 -64 14 -93 15 -45 0 -55 3 -59 20 -3 11 -14 20 -24 20 -18 0 -19 -19 -19
-580z"/>
<path d="M445 6539 c-44 -5 -134 -13 -200 -17 -66 -5 -136 -14 -155 -20 -19
-7 -48 -12 -65 -13 l-30 -1 28 -8 c16 -5 35 -6 42 -4 7 3 30 0 52 -6 21 -6 67
-16 103 -21 36 -5 93 -13 128 -19 34 -5 88 -14 120 -18 31 -4 67 -13 79 -20
12 -7 41 -12 65 -12 24 0 53 -7 64 -15 10 -8 33 -15 50 -15 18 0 45 -7 60 -15
16 -8 43 -15 61 -15 17 0 35 -4 38 -10 3 -5 21 -10 38 -10 18 0 45 -7 61 -15
15 -8 35 -15 43 -15 9 0 36 -7 62 -15 25 -7 66 -19 91 -26 25 -6 55 -15 68
-20 13 -5 35 -9 50 -9 15 -1 38 -7 52 -15 14 -8 35 -14 48 -15 13 0 30 -7 38
-15 9 -8 26 -15 39 -15 13 0 38 -8 57 -17 61 -30 68 -33 84 -33 9 0 30 -6 47
-14 50 -22 171 -66 183 -66 6 0 34 -11 62 -25 29 -14 60 -25 71 -25 10 0 24
-7 31 -15 7 -8 17 -15 24 -15 6 0 33 -11 61 -24 27 -13 70 -32 95 -42 25 -10
52 -24 61 -31 8 -7 21 -13 28 -13 19 0 502 -243 546 -274 28 -20 74 -46 150
-84 17 -8 38 -22 48 -30 9 -8 26 -20 36 -26 22 -13 88 -57 235 -156 12 -8 37
-24 55 -35 18 -11 54 -37 79 -57 26 -21 50 -38 54 -38 4 0 22 -14 40 -31 18
-17 49 -41 68 -54 19 -12 44 -32 54 -44 11 -11 25 -21 32 -21 7 0 43 -28 79
-62 37 -35 76 -68 88 -74 28 -16 547 -534 556 -556 3 -9 33 -45 66 -81 33 -36
72 -82 88 -104 54 -75 127 -166 152 -189 14 -12 25 -28 25 -33 0 -6 15 -28 33
-48 37 -42 97 -130 97 -142 0 -4 13 -20 28 -37 16 -16 42 -49 58 -73 16 -24
40 -61 54 -82 14 -20 75 -111 135 -201 61 -89 116 -174 123 -188 7 -14 22 -34
33 -46 10 -11 19 -27 19 -36 0 -9 3 -18 8 -20 8 -4 72 -96 72 -105 0 -3 11
-20 24 -37 13 -17 35 -54 49 -83 15 -28 30 -53 34 -55 4 -1 19 -25 33 -53 14
-27 33 -59 43 -70 10 -11 27 -40 38 -65 11 -24 26 -51 34 -60 8 -9 31 -47 50
-85 20 -39 47 -83 59 -100 12 -16 32 -51 44 -77 13 -27 28 -48 33 -48 14 0 11
53 -5 75 -8 11 -16 43 -19 70 -3 28 -11 75 -17 105 -6 30 -14 73 -17 95 -3 22
-12 49 -19 60 -8 11 -14 30 -14 43 0 24 -25 111 -41 144 -5 10 -9 28 -9 42 0
13 -7 29 -15 36 -8 7 -15 24 -15 37 0 14 -6 37 -14 51 -8 15 -31 81 -52 147
-21 66 -44 127 -51 136 -7 8 -13 24 -13 35 0 10 -12 44 -26 74 -14 30 -33 71
-41 90 -8 19 -19 42 -24 50 -5 8 -12 22 -15 30 -3 8 -14 33 -25 55 -10 22 -19
45 -19 51 0 6 -7 17 -15 24 -8 7 -15 21 -15 32 0 21 -51 126 -84 173 -12 17
-46 78 -75 138 -30 59 -57 107 -60 107 -3 0 -17 22 -30 49 -12 27 -34 60 -47
72 -13 12 -24 30 -24 38 -1 9 -14 32 -30 51 -17 19 -30 39 -30 45 0 6 -9 18
-20 28 -11 9 -20 23 -20 30 0 7 -14 29 -30 47 -16 18 -30 39 -30 46 0 6 -7 18
-16 25 -9 8 -27 30 -39 49 -12 19 -39 53 -58 75 -20 22 -37 45 -37 50 0 6 -27
37 -60 70 -34 33 -72 78 -85 101 -24 41 -374 390 -423 421 -15 10 -44 34 -65
53 -21 19 -53 44 -71 55 -18 11 -50 37 -72 57 -21 20 -57 49 -79 64 -22 14
-42 29 -45 33 -11 14 -117 81 -128 81 -7 0 -12 4 -12 8 0 11 -199 142 -269
177 -30 15 -79 44 -110 64 -31 21 -90 53 -131 72 -41 19 -139 67 -218 107 -80
39 -149 72 -154 72 -5 0 -34 11 -64 25 -30 14 -60 25 -67 25 -7 0 -34 11 -62
25 -27 13 -59 25 -70 25 -11 0 -29 7 -39 15 -11 8 -32 15 -48 15 -15 0 -28 4
-28 10 0 5 -12 12 -27 16 -54 12 -128 37 -137 45 -6 5 -22 9 -36 9 -14 0 -34
6 -45 14 -11 7 -38 16 -60 19 -22 3 -58 10 -80 17 -22 7 -62 15 -90 17 -27 3
-59 11 -70 19 -11 8 -38 14 -60 14 -22 0 -49 7 -59 15 -11 8 -41 15 -66 15
-25 0 -50 4 -56 10 -10 10 -103 24 -254 39 -47 5 -98 14 -113 20 -16 6 -79 11
-141 11 -62 0 -116 4 -122 10 -14 14 -456 21 -559 9z"/>
<path d="M5065 5303 c-50 -26 -85 -65 -118 -133 -31 -63 -32 -68 -32 -197 0
-92 4 -136 13 -145 6 -6 12 -25 12 -41 0 -25 11 -55 41 -107 5 -8 12 -22 15
-30 26 -67 103 -160 174 -212 40 -29 104 -43 151 -33 38 9 129 90 129 115 0
10 6 23 14 29 18 15 27 63 33 180 3 59 1 97 -6 104 -6 6 -11 27 -11 46 0 20
-7 49 -15 65 -8 15 -15 34 -15 41 0 14 -34 81 -73 146 -34 57 -133 148 -183
169 -55 24 -89 25 -129 3z"/>
<path d="M787 3373 c-12 -12 -7 -80 8 -109 8 -16 15 -46 15 -67 0 -20 4 -45 9
-55 6 -9 13 -38 16 -64 3 -26 10 -50 16 -53 5 -4 9 -16 9 -28 0 -25 25 -109
46 -150 8 -16 14 -36 14 -45 0 -18 18 -78 31 -104 5 -10 9 -24 9 -32 0 -8 14
-44 30 -79 17 -36 30 -70 30 -76 0 -6 4 -19 9 -29 5 -9 12 -24 15 -32 4 -8 17
-35 31 -59 14 -24 25 -50 25 -58 0 -7 24 -59 53 -115 75 -145 79 -153 89 -156
4 -2 8 -9 8 -15 0 -7 19 -42 43 -79 23 -37 56 -90 72 -119 17 -29 35 -62 42
-73 7 -12 28 -39 48 -60 19 -22 35 -45 35 -51 0 -6 14 -24 31 -41 17 -16 38
-42 46 -59 9 -16 38 -53 64 -82 27 -28 49 -55 49 -60 0 -6 190 -210 247 -266
167 -161 249 -237 259 -237 6 0 29 -18 50 -40 22 -23 55 -50 74 -62 19 -12 49
-33 65 -47 40 -36 121 -91 132 -91 5 0 20 -11 33 -25 13 -14 28 -25 33 -25 5
0 26 -14 47 -30 21 -17 40 -30 43 -30 4 0 22 -11 42 -24 20 -14 65 -39 100
-56 36 -17 67 -36 70 -41 4 -5 13 -9 22 -9 8 0 28 -11 45 -25 16 -14 36 -25
45 -25 13 0 47 -15 93 -41 8 -5 22 -12 30 -15 45 -19 108 -47 132 -60 14 -8
33 -14 41 -14 8 0 35 -11 61 -25 26 -14 55 -25 65 -25 9 0 26 -7 37 -15 10 -8
27 -15 37 -15 11 0 33 -6 50 -14 43 -18 109 -36 138 -36 13 0 33 -7 43 -15 10
-8 22 -12 26 -10 5 3 24 -2 44 -10 19 -8 55 -15 79 -15 26 0 49 -6 56 -14 7
-8 33 -16 59 -19 26 -3 62 -9 80 -12 l32 -7 0 574 0 574 -38 17 c-21 9 -50 17
-63 17 -13 1 -35 7 -49 15 -14 8 -37 14 -51 15 -15 0 -32 7 -39 15 -7 8 -23
15 -37 15 -13 0 -41 9 -63 20 -22 11 -50 20 -64 20 -14 0 -27 4 -30 9 -3 5
-54 33 -113 62 -60 29 -109 56 -111 61 -2 4 -11 8 -21 8 -9 0 -40 16 -70 35
-29 19 -56 35 -61 35 -4 0 -13 7 -20 15 -7 8 -19 15 -27 15 -9 0 -30 12 -49
28 -63 52 -132 102 -141 102 -5 0 -20 12 -34 26 -13 15 -41 37 -62 51 -46 29
-427 405 -427 421 0 6 -18 32 -40 57 -22 25 -40 49 -40 53 0 4 -18 27 -40 51
-22 25 -40 49 -40 55 -1 6 -14 27 -30 46 -17 19 -30 39 -30 46 0 6 -13 29 -28
50 -34 48 -192 360 -192 380 0 8 -11 37 -24 64 -14 28 -28 64 -31 80 -4 17
-11 32 -16 35 -5 4 -9 16 -9 29 0 12 -7 31 -15 42 -8 10 -15 35 -15 55 0 19
-7 44 -15 55 -8 10 -15 35 -15 55 0 24 -5 39 -16 43 -21 8 -1129 8 -1137 -1z"/>
<path d="M7725 3372 c-12 -8 -35 -71 -35 -96 0 -22 -30 -118 -41 -131 -5 -5
-9 -20 -9 -35 0 -14 -7 -34 -15 -44 -8 -11 -15 -27 -15 -36 0 -10 -11 -38 -25
-64 -14 -26 -25 -55 -25 -66 0 -10 -7 -25 -15 -34 -8 -8 -15 -20 -15 -26 0 -7
-6 -24 -14 -38 -8 -15 -27 -53 -42 -85 -14 -31 -30 -60 -35 -63 -5 -3 -9 -13
-9 -23 0 -10 -9 -26 -20 -36 -12 -11 -32 -42 -46 -69 -14 -28 -34 -60 -44 -71
-10 -11 -21 -30 -24 -41 -4 -12 -15 -29 -26 -39 -11 -10 -20 -23 -20 -29 0 -7
-23 -36 -51 -66 -27 -30 -55 -65 -62 -77 -11 -19 -112 -138 -190 -223 -18 -19
-55 -53 -82 -75 -27 -22 -84 -71 -126 -110 -78 -71 -162 -135 -176 -135 -5 0
-19 -10 -33 -23 -101 -91 -514 -310 -691 -366 -57 -18 -119 -39 -137 -47 -18
-8 -41 -14 -52 -14 -10 0 -22 -4 -25 -10 -3 -5 -21 -10 -38 -10 -18 0 -45 -7
-61 -15 -15 -8 -42 -15 -58 -15 -16 0 -38 -5 -49 -10 -18 -10 -19 -27 -19
-580 0 -558 0 -570 19 -570 11 0 23 5 26 10 3 6 30 10 58 10 29 1 70 7 92 15
22 8 56 15 75 15 19 0 48 7 64 15 15 8 42 15 58 15 16 0 38 5 49 11 11 5 33
12 50 14 17 2 36 8 42 13 7 5 28 12 47 15 59 9 94 18 125 32 17 7 55 21 85 30
30 10 60 21 65 25 6 4 22 10 38 14 15 3 27 11 27 16 0 6 11 10 24 10 22 0 85
26 158 66 14 8 31 14 38 14 19 0 173 76 258 128 44 27 94 54 111 62 17 7 31
16 31 20 0 5 24 20 53 34 29 13 61 34 71 45 11 12 24 21 30 21 7 0 27 13 46
30 19 16 40 29 45 30 6 0 27 16 48 35 21 19 44 35 50 35 7 0 38 25 70 55 31
30 61 55 67 55 5 0 39 28 76 62 36 35 74 66 83 70 28 11 406 411 432 458 8 13
35 49 62 79 26 30 47 61 47 68 0 7 4 13 9 13 5 0 23 21 40 48 17 26 38 58 48
72 9 14 38 59 64 100 26 41 57 87 68 101 11 14 45 77 76 140 31 63 61 121 66
129 5 8 12 22 15 30 3 8 9 22 14 30 5 8 27 52 50 97 39 80 54 118 86 213 9 25
19 54 23 65 19 49 33 92 38 115 3 14 12 34 19 45 8 11 14 31 14 45 0 14 4 30
9 36 5 5 12 27 15 49 4 22 11 44 16 49 6 6 10 20 10 32 0 12 7 38 15 57 8 20
15 53 15 72 0 20 4 44 9 53 4 9 12 50 15 90 l7 72 -563 0 c-310 0 -568 -4
-573 -8z"/>
</g>
</svg>
